<?xml version="1.0" encoding="utf-8"?>
<!-- Generator: Adobe Illustrator 23.0.3, SVG Export Plug-In . SVG Version: 6.00 Build 0)  -->
<svg version="1.1" id="Capa_1" xmlns="http://www.w3.org/2000/svg" xmlns:xlink="http://www.w3.org/1999/xlink" x="0px" y="0px"
	 viewBox="0 0 99.15 27.67" style="enable-background:new 0 0 99.15 27.67;" xml:space="preserve">
<style type="text/css">
	.st0{fill:#1D1D1B;}
	.st1{fill:url(#SVGID_1_);}
</style>
<g>
	<g>
		<path class="st0" d="M16.03,1.94v8.17h-4.64V6.94c0,0-5.86,0.13-7.26,8.05c-0.18,1.01-0.22,2.74-0.22,2.74H0.16
			c0,0,0.03-2.15,0.22-3.26c0.4-2.34,1.47-6.38,4.35-9.03C8.97,1.53,16.03,1.94,16.03,1.94z"/>
		<path class="st0" d="M26.55,1.94h-8.19v4.63h3.17c0,0-0.12,6.6-9.4,7.39v3.8c0,0,6.98-0.33,10.91-4.55
			C26.96,8.98,26.55,1.94,26.55,1.94z"/>
	</g>
	<g>
		<path class="st0" d="M30.66,23.9c0-1.32,1-2.27,2.24-2.27c1.24,0,2.35,0.76,2.18,2.48H31.1c0.09,1.03,0.89,1.63,1.8,1.63
			c0.58,0,1.26-0.23,1.59-0.67l0.31,0.25c-0.43,0.56-1.2,0.85-1.91,0.85C31.66,26.17,30.66,25.3,30.66,23.9z M34.69,23.73
			c-0.01-1.09-0.72-1.69-1.79-1.69c-0.91,0-1.7,0.61-1.8,1.69H34.69z"/>
		<path class="st0" d="M39.25,22.5c-0.45-0.39-0.89-0.46-1.38-0.46c-0.69-0.01-1.35,0.25-1.33,0.81c0.02,0.59,0.79,0.7,1.34,0.8
			c0.79,0.13,1.87,0.27,1.82,1.29c-0.03,0.97-1.04,1.23-1.82,1.23c-0.78,0-1.55-0.29-1.93-0.88l0.32-0.29
			c0.37,0.53,1.03,0.75,1.62,0.75c0.54,0,1.35-0.14,1.38-0.84c0.02-0.63-0.72-0.76-1.44-0.87c-0.86-0.14-1.71-0.3-1.72-1.19
			c-0.01-0.86,0.86-1.24,1.75-1.23c0.64,0,1.21,0.18,1.65,0.59L39.25,22.5z"/>
		<path class="st0" d="M41.69,20.37v1.33h1.5v0.37h-1.5v2.68c0,0.6,0.13,1.02,0.81,1.02c0.21,0,0.46-0.07,0.68-0.18l0.15,0.36
			c-0.28,0.13-0.55,0.22-0.83,0.22c-0.94,0-1.24-0.55-1.24-1.42v-2.68h-0.94V21.7h0.94v-1.28L41.69,20.37z"/>
		<path class="st0" d="M47.77,26.1v-0.79c-0.34,0.61-0.96,0.86-1.57,0.87c-1.18,0-1.99-0.72-1.99-1.94v-2.54h0.44v2.53
			c0,1,0.62,1.53,1.57,1.52c0.91-0.01,1.55-0.69,1.55-1.6v-2.45h0.44v4.41H47.77z"/>
		<path class="st0" d="M53.59,19.87v6.24h-0.43v-0.97c-0.37,0.67-1.09,1.04-1.84,1.04c-1.23,0-2.21-0.81-2.21-2.27
			c0-1.45,0.98-2.27,2.22-2.27c0.76,0,1.48,0.32,1.83,1.03v-2.8H53.59z M49.54,23.9c0,1.22,0.81,1.84,1.81,1.84
			c1.04,0,1.81-0.76,1.81-1.85c0-1.1-0.79-1.84-1.81-1.84C50.35,22.05,49.54,22.67,49.54,23.9z"/>
		<path class="st0" d="M55.43,20.27c0,0.46-0.71,0.46-0.71,0C54.73,19.8,55.43,19.8,55.43,20.27z M54.85,21.68v4.42h0.44v-4.42
			H54.85z"/>
		<path class="st0" d="M56.44,23.91c0-1.4,1-2.29,2.24-2.29c1.24,0,2.24,0.89,2.24,2.29c0,1.4-1,2.25-2.24,2.25
			C57.44,26.17,56.44,25.31,56.44,23.91z M60.5,23.91c0-1.14-0.81-1.88-1.82-1.88c-1,0-1.82,0.74-1.82,1.88
			c0,1.14,0.81,1.83,1.82,1.83C59.68,25.74,60.5,25.05,60.5,23.91z"/>
		<path class="st0" d="M68.02,25.49c-0.45,0.45-1.03,0.66-1.61,0.66c-1.24,0-2.27-0.86-2.27-2.25c0-1.39,0.99-2.25,2.27-2.25
			c0.58,0,1.16,0.22,1.61,0.66l-0.29,0.28c-0.36-0.36-0.85-0.53-1.32-0.53c-1,0-1.84,0.65-1.84,1.84c0,1.19,0.84,1.84,1.84,1.84
			c0.47,0,0.96-0.19,1.31-0.54L68.02,25.49z"/>
		<path class="st0" d="M69.33,21.7l0.02,0.78c0.28-0.6,0.9-0.83,1.47-0.83c0.33-0.01,0.65,0.08,0.95,0.26l-0.2,0.36
			c-0.23-0.14-0.49-0.2-0.75-0.2c-0.82,0.01-1.46,0.67-1.46,1.47v2.57h-0.44v-4.4H69.33z"/>
		<path class="st0" d="M72.17,23.9c0-1.32,1-2.27,2.24-2.27c1.24,0,2.35,0.76,2.18,2.48h-3.98c0.09,1.03,0.89,1.63,1.8,1.63
			c0.58,0,1.26-0.23,1.59-0.67l0.31,0.25c-0.43,0.56-1.2,0.85-1.91,0.85C73.17,26.17,72.17,25.3,72.17,23.9z M76.21,23.73
			c-0.01-1.09-0.72-1.69-1.79-1.69c-0.91,0-1.7,0.61-1.8,1.69H76.21z"/>
		<path class="st0" d="M81.98,21.7c0,1.47,0,2.93,0,4.4h-0.44v-0.94c-0.43,0.69-1.09,1.01-1.81,1.01c-1.23,0-2.24-0.93-2.24-2.27
			c0-1.35,1.01-2.26,2.24-2.26c0.72,0,1.44,0.33,1.81,1.02V21.7H81.98z M77.93,23.9c0,1.1,0.81,1.84,1.81,1.84
			c2.46,0,2.46-3.68,0-3.68C78.74,22.07,77.93,22.8,77.93,23.9z"/>
		<path class="st0" d="M84,20.37v1.33h1.5v0.37H84v2.68c0,0.6,0.13,1.02,0.81,1.02c0.21,0,0.46-0.07,0.68-0.18l0.15,0.36
			c-0.28,0.13-0.55,0.22-0.83,0.22c-0.94,0-1.24-0.55-1.24-1.42v-2.68h-0.94V21.7h0.94v-1.28L84,20.37z"/>
		<path class="st0" d="M87.09,20.27c0,0.46-0.71,0.46-0.71,0C86.39,19.8,87.09,19.8,87.09,20.27z M86.51,21.68v4.42h0.44v-4.42
			H86.51z"/>
		<path class="st0" d="M87.78,21.7h0.48l1.61,3.89l1.61-3.89h0.48l-1.85,4.4h-0.48L87.78,21.7z"/>
		<path class="st0" d="M92.49,23.91c0-1.4,1-2.29,2.24-2.29c1.24,0,2.24,0.89,2.24,2.29c0,1.4-1,2.25-2.24,2.25
			C93.49,26.17,92.49,25.31,92.49,23.91z M96.55,23.91c0-1.14-0.81-1.88-1.82-1.88c-1,0-1.82,0.74-1.82,1.88
			c0,1.14,0.81,1.83,1.82,1.83C95.73,25.74,96.55,25.05,96.55,23.91z"/>
	</g>
	<g>
		<path class="st0" d="M45.66,19.75c0,1.2-1.83,1.2-1.83,0C43.83,18.55,45.66,18.55,45.66,19.75z"/>
		<path class="st0" d="M44.14,17.89V1.75h1.23v16.14H44.14z"/>
		<linearGradient id="SVGID_1_" gradientUnits="userSpaceOnUse" x1="44.135" y1="9.8424" x2="58.81" y2="9.8424">
			<stop  offset="0" style="stop-color:#FFFFFF"/>
			<stop  offset="1" style="stop-color:#000000"/>
		</linearGradient>
		<path class="st1" d="M58.81,1.75l-6.67,16.19H50.8L44.14,1.75h1.34l5.99,14.76l5.99-14.76H58.81z"/>
		<path class="st0" d="M58.67,9.19h9.49v1.13h-9.49v6.37H68.9v1.2H57.44V1.75h11.18v1.18h-9.95V9.19z"/>
		<path class="st0" d="M98.99,9.84c-0.02,4.24-2.73,8.32-8.17,8.32c-5.44,0-8.17-4.1-8.17-8.37c0-4.33,2.71-8.3,8.17-8.3
			C96.28,1.49,99.01,5.48,98.99,9.84z M83.87,9.82c0.02,3.65,2.34,7.2,6.94,7.2c4.63,0,6.97-3.55,6.97-7.2
			c0-3.73-2.32-7.17-6.97-7.17C86.17,2.65,83.85,6.01,83.87,9.82z"/>
		<path class="st0" d="M37.78,11.71c3.54,0,5.28-2.31,5.25-4.93c-0.02-2.52-1.8-5.03-5.32-5.03c-2.38,0-4.75,0-7.13,0v16.14h1.25
			v-3.6v-2.51V10.6V8.99V2.9h5.88c2.68,0,3.98,1.96,3.96,3.85c-0.02,2.26-1.27,3.85-4.1,3.85h-1.3v1.19l5.58,6.09h1.64L37.78,11.71z
			"/>
		<path class="st0" d="M76.93,11.71c3.54,0,5.28-2.31,5.25-4.93c-0.02-2.52-1.8-5.03-5.32-5.03c-2.38,0-4.75,0-7.13,0v16.14h1.25
			v-3.6v-2.51V10.6V8.99V2.9h5.88c2.68,0,3.98,1.96,3.96,3.85c-0.02,2.26-1.27,3.85-4.1,3.85h-1.3v1.19L81,17.89h1.64L76.93,11.71z"
			/>
	</g>
</g>
</svg>
